PathFileType	4	(X/Y/Z)	58_2_104_p1_0-245.trc
DataRate	CameraRate	NumFrames	NumMarkers	Units	OrigDataRate	OrigDataStartFrame	OrigNumFrames
38.0	38.0	4	27	m	38.0	0	246
Frame#	Time	RHip			RKnee			RAnkle			RBigToe			RSmallToe			RHeel			LHip			LKnee			LAnkle			LBigToe			LSmallToe			LHeel			Neck			Head			Nose			RShoulder			RElbow			RWrist			RThumb			RIndex			RPinky			LShoulder			LElbow			LWrist			LThumb			LIndex			LPinky			
		X1	Y1	Z1	X2	Y2	Z2	X3	Y3	Z3	X4	Y4	Z4	X5	Y5	Z5	X6	Y6	Z6	X7	Y7	Z7	X8	Y8	Z8	X9	Y9	Z9	X10	Y10	Z10	X11	Y11	Z11	X12	Y12	Z12	X13	Y13	Z13	X14	Y14	Z14	X15	Y15	Z15	X16	Y16	Z16	X17	Y17	Z17	X18	Y18	Z18	X19	Y19	Z19	X20	Y20	Z20	X21	Y21	Z21	X22	Y22	Z22	X23	Y23	Z23	X24	Y24	Z24	X25	Y25	Z25	X26	Y26	Z26	X27	Y27	Z27	
0	0.0	0.32868957506516155	0.517934055469016	0.9724697642204457	0.3337025207331924	0.6428907580606079	1.4592550068459667	0.3147334630908894	0.7750226244634798	1.8952828419760424	0.2809469736285257	0.517988424798514	1.9370237508899903	0.3582659611789994	0.5604589721928779	1.9368083051676284	0.29023961440266366	0.8411027731242876	1.944037696721067	0.12037672080774932	0.5279756156462535	0.9881881062216915	0.1268341077888631	0.646753948570346	1.461895453360084	0.12697276579394728	0.7384222200492195	1.8795708137515375	0.1271951613484352	0.5569638033352711	1.9467512209115132	0.07361082328316673	0.6132703327685692	1.9572952812680926	0.14091709712876457	0.8185906967783895	1.9325230266268287	0.21529271599048475	0.43479879976293345	0.42746881625663957	0.22408472902478938	0.29652129608163114	0.196592560376809	0.20824137150542557	0.27928315424190253	0.34798690623402667	0.3587769512935171	0.3947620940584796	0.5101228240727795	0.4189797564405804	0.475161503717099	0.7940999858194857	0.32072512696122196	0.3707776353858241	1.0086353884005645	0.21687801664566414	0.36676005513288124	1.0942825676486745	0.2141256143871424	0.3849488655603858	1.1209350897996826	0.21156433269507213	0.40342170981060577	1.111691657948802	0.06871235450264875	0.4233850697713614	0.5144133582038638	0.044159451599712754	0.45176544803475577	0.7763645652602393	0.12881541011779402	0.36086339687125296	1.00514630389697	0.21078772609603558	0.34400677714777494	1.0729170941684025	0.21214164865219132	0.34258607121885504	1.0990546925591707	0.18925267395191359	0.3936176076226819	1.1240056386599646
1	0.02631578947368421	0.3282449787003455	0.5188749102165282	0.976247931125616	0.3329305552103394	0.644353225409085	1.463768663258453	0.31470388828593243	0.7748193416772027	1.895629666391786	0.28436653026965547	0.5321800116355418	1.9427276311293213	0.35854494608140236	0.5608490226188871	1.9323083310235973	0.2946074685892293	0.856875529988828	1.949903718119876	0.11961499870147886	0.525686235333883	0.9837262297201251	0.12663264632624585	0.646296549086228	1.4616193990689357	0.12681509941072236	0.740548079117584	1.8760129180299165	0.12723085955732824	0.5571556117900432	1.946955474504742	0.07315746209737915	0.61529699287835	1.95340176561366	0.14007150278314462	0.8185076983234991	1.931333939239945	0.2153047433571176	0.43485260214774857	0.4274978182566145	0.22409029790481352	0.2963436985235332	0.19661183623245396	0.208228436159066	0.27928048967083535	0.34796859652837625	0.3587474406258896	0.39484332617242496	0.5101243732639155	0.4186845841020369	0.4761269160858121	0.7977207451032318	0.32076441509123116	0.3706367638584671	1.0086825029651247	0.21746849018733144	0.3685967114916191	1.0993572032069807	0.2104812928056639	0.38440519801822143	1.1208887126201577	0.2112861690672717	0.4026727544039971	1.111830556917026	0.06862708834674455	0.4229491002811926	0.5143857898937552	0.04403650394960105	0.448203554937377	0.768949137144806	0.1286670387912816	0.3609725744658917	1.0050076508959758	0.20305564049780647	0.3554039549364048	1.0720756191177399	0.20834565213257566	0.3418216012139094	1.0989407720873214	0.18916302552812933	0.3939386995155454	1.1238541417025272
2	0.05263157894736842	0.3282632920599834	0.5188736939438404	0.976135623698055	0.3328556266917046	0.6441228726632684	1.4635628793857531	0.3147003759767637	0.7747879417085611	1.8955918640226197	0.2840923068953488	0.5321122367808117	1.9424700055140078	0.3548974046971846	0.5749787441546756	1.9428889263637956	0.2950139633426254	0.8552879733252802	1.9533671063461377	0.11973374422761907	0.5254480176918156	0.9837087624590212	0.1267094934259628	0.6465058708515345	1.461627649416067	0.12686695932330858	0.740136332888035	1.8757916945031268	0.1270873943352629	0.5574987898067619	1.9467818920632927	0.07287467526719048	0.6157327510440462	1.9532889262258797	0.14003253258999107	0.8190012897471056	1.9316607707189266	0.2153120543531699	0.43490597267052145	0.42750567810032786	0.2240926697079331	0.2962849272320205	0.19661574417183458	0.21198455916351444	0.28059200345583496	0.3478175002545824	0.35875187068517267	0.3948010799241835	0.5101057122170317	0.4189355213475739	0.4751448093116499	0.7942938103670037	0.31663436858864147	0.3691956338919843	1.0085615436743003	0.217423055010977	0.36859504960802486	1.0996145345150299	0.21041547504358635	0.3845131883958766	1.121116588480737	0.21123120032523537	0.4033533701205114	1.1119971387909122	0.06867470385108589	0.4229507601657718	0.5143901271549008	0.044301760354550385	0.45020656529803116	0.7725654654331648	0.12854497840881265	0.36087116564942445	1.004889322225518	0.20298497273063085	0.3553951317819636	1.0720949705508014	0.20430154478758794	0.3534997188805549	1.1009101923730982	0.1859853822919199	0.38190181040214205	1.122091032545127
3	0.07894736842105263	0.3282436496563256	0.5189010222063999	0.9761561634931519	0.3328232177662535	0.6444301470390035	1.463833985326724	0.31584721516950603	0.7776394225591894	1.9013165205902256	0.2839555080199434	0.5315758442185082	1.94225132689336	0.3585276944332912	0.5576642760675146	1.935620707222236	0.2951546252005075	0.8555130626305879	1.953377207551833	0.11970974527994467	0.5257024549894146	0.983739851430429	0.12664932450579613	0.6467635702705373	1.4616731695784397	0.1271689928416305	0.7403058019341756	1.8760824018358662	0.12707562501875055	0.5572077717996176	1.946783074119976	0.07290220388085145	0.6153330324132927	1.9531313619832869	0.14173337701586744	0.8175709442682925	1.9267460536989147	0.21531332503085102	0.43493729399049086	0.4274900617780576	0.22405799766394544	0.2963519724782943	0.19657621071078749	0.20871163407189755	0.27013102344266426	0.3488247706607289	0.35874682460549845	0.3948546527098885	0.5101383983807554	0.4185740639813219	0.4761885566685968	0.7976931012010131	0.3165711941073856	0.369116105367211	1.008591622462082	0.2128810905479402	0.35478985117891887	1.0928773895507897	0.21036096982152588	0.38424648765281955	1.1211509696737474	0.21112539982196749	0.40301705067039806	1.1119446899361562	0.06868443136369227	0.42299531458483747	0.5143906097873238	0.044386712515591974	0.4503286657129421	0.7726253816005054	0.12856654774379306	0.3607271295270169	1.004891179242583	0.20302100520991093	0.35512313924831845	1.0720006848938075	0.20825855058794582	0.34168427000553264	1.0989090752874582	0.18593872620001056	0.38180605747104046	1.1219575460414921
